STARTFONT 2.1
FONT -tkw-tkw-r-normal--7-70-72-72-C-40-iso8859-1
SIZE 7 72 72
FONTBOUNDINGBOX 5 7 -1 -1
STARTPROPERTIES 21
FAMILY_NAME "tkw"
FOUNDRY "tkw"
SETWIDTH_NAME "Normal"
ADD_STYLE_NAME ""
COPYRIGHT "Copyright kakwalab (C) 2025"
NOTICE "Licensed under the SIL Open Font License, Version 1.1"
WEIGHT_NAME "Medium"
SLANT "R"
PIXEL_SIZE 7
POINT_SIZE 70
RESOLUTION_X 72
RESOLUTION_Y 72
SPACING "C"
AVERAGE_WIDTH 40
CHARSET_REGISTRY "ISO8859"
CHARSET_ENCODING "1"
MIN_SPACE 4
FONT_ASCENT 6
FONT_DESCENT 1
DEFAULT_CHAR 65533
_GBDFED_INFO "Edited with gbdfed 1.6."
ENDPROPERTIES
CHARS 179
STARTCHAR U+0100
ENCODING -1
SWIDTH 714 0
DWIDTH 5 0
BBX 5 7 -1 -1
BITMAP
F0
00
60
90
F0
90
00
ENDCHAR
STARTCHAR U+0101
ENCODING -1
SWIDTH 714 0
DWIDTH 5 0
BBX 5 7 -1 -1
BITMAP
F0
00
70
70
90
70
00
ENDCHAR
STARTCHAR U+0102
ENCODING -1
SWIDTH 714 0
DWIDTH 5 0
BBX 5 7 -1 -1
BITMAP
90
F0
60
90
F0
90
00
ENDCHAR
STARTCHAR U+0103
ENCODING -1
SWIDTH 714 0
DWIDTH 5 0
BBX 5 7 -1 -1
BITMAP
90
F0
10
70
90
70
00
ENDCHAR
STARTCHAR U+0104
ENCODING -1
SWIDTH 714 0
DWIDTH 5 0
BBX 5 7 -1 -1
BITMAP
40
A0
A0
E0
A0
A0
30
ENDCHAR
STARTCHAR U+0105
ENCODING -1
SWIDTH 714 0
DWIDTH 5 0
BBX 5 7 -1 -1
BITMAP
00
C0
20
E0
A0
60
10
ENDCHAR
STARTCHAR exclam
ENCODING 33
SWIDTH 714 0
DWIDTH 5 0
BBX 5 7 -1 -1
BITMAP
20
20
20
20
00
20
00
ENDCHAR
STARTCHAR quotedbl
ENCODING 34
SWIDTH 714 0
DWIDTH 5 0
BBX 5 7 -1 -1
BITMAP
50
50
00
00
00
00
00
ENDCHAR
STARTCHAR numbersign
ENCODING 35
SWIDTH 714 0
DWIDTH 5 0
BBX 5 7 -1 -1
BITMAP
00
30
78
30
78
30
00
ENDCHAR
STARTCHAR dollar
ENCODING 36
SWIDTH 714 0
DWIDTH 5 0
BBX 5 7 -1 -1
BITMAP
30
78
70
30
38
78
30
ENDCHAR
STARTCHAR percent
ENCODING 37
SWIDTH 714 0
DWIDTH 5 0
BBX 5 7 -1 -1
BITMAP
00
00
48
10
20
48
00
ENDCHAR
STARTCHAR ampersand
ENCODING 38
SWIDTH 714 0
DWIDTH 5 0
BBX 5 7 -1 -1
BITMAP
20
50
20
68
50
28
00
ENDCHAR
STARTCHAR quotesingle
ENCODING 39
SWIDTH 714 0
DWIDTH 5 0
BBX 5 7 -1 -1
BITMAP
20
20
00
00
00
00
00
ENDCHAR
STARTCHAR parenleft
ENCODING 40
SWIDTH 714 0
DWIDTH 5 0
BBX 5 7 -1 -1
BITMAP
10
20
20
20
20
10
00
ENDCHAR
STARTCHAR parenright
ENCODING 41
SWIDTH 714 0
DWIDTH 5 0
BBX 5 7 -1 -1
BITMAP
20
10
10
10
10
20
00
ENDCHAR
STARTCHAR asterisk
ENCODING 42
SWIDTH 714 0
DWIDTH 5 0
BBX 5 7 -1 -1
BITMAP
00
48
30
78
30
48
00
ENDCHAR
STARTCHAR plus
ENCODING 43
SWIDTH 714 0
DWIDTH 5 0
BBX 5 7 -1 -1
BITMAP
00
00
20
70
20
00
00
ENDCHAR
STARTCHAR comma
ENCODING 44
SWIDTH 714 0
DWIDTH 5 0
BBX 5 7 -1 -1
BITMAP
00
00
00
00
10
20
00
ENDCHAR
STARTCHAR hyphen
ENCODING 45
SWIDTH 714 0
DWIDTH 5 0
BBX 5 7 -1 -1
BITMAP
00
00
00
70
00
00
00
ENDCHAR
STARTCHAR period
ENCODING 46
SWIDTH 714 0
DWIDTH 5 0
BBX 5 7 -1 -1
BITMAP
00
00
00
00
00
20
00
ENDCHAR
STARTCHAR slash
ENCODING 47
SWIDTH 714 0
DWIDTH 5 0
BBX 5 7 -1 -1
BITMAP
00
08
10
20
40
00
00
ENDCHAR
STARTCHAR zero
ENCODING 48
SWIDTH 714 0
DWIDTH 5 0
BBX 5 7 -1 -1
BITMAP
30
48
58
68
48
30
00
ENDCHAR
STARTCHAR one
ENCODING 49
SWIDTH 714 0
DWIDTH 5 0
BBX 5 7 -1 -1
BITMAP
20
60
20
20
20
70
00
ENDCHAR
STARTCHAR two
ENCODING 50
SWIDTH 714 0
DWIDTH 5 0
BBX 5 7 -1 -1
BITMAP
30
48
48
10
20
78
00
ENDCHAR
STARTCHAR three
ENCODING 51
SWIDTH 714 0
DWIDTH 5 0
BBX 5 7 -1 -1
BITMAP
78
08
10
08
48
30
00
ENDCHAR
STARTCHAR four
ENCODING 52
SWIDTH 714 0
DWIDTH 5 0
BBX 5 7 -1 -1
BITMAP
10
30
50
78
10
10
00
ENDCHAR
STARTCHAR five
ENCODING 53
SWIDTH 714 0
DWIDTH 5 0
BBX 5 7 -1 -1
BITMAP
78
40
70
08
08
70
00
ENDCHAR
STARTCHAR six
ENCODING 54
SWIDTH 714 0
DWIDTH 5 0
BBX 5 7 -1 -1
BITMAP
30
40
70
48
48
30
00
ENDCHAR
STARTCHAR seven
ENCODING 55
SWIDTH 714 0
DWIDTH 5 0
BBX 5 7 -1 -1
BITMAP
78
08
10
10
20
20
00
ENDCHAR
STARTCHAR eight
ENCODING 56
SWIDTH 714 0
DWIDTH 5 0
BBX 5 7 -1 -1
BITMAP
30
48
30
48
48
30
00
ENDCHAR
STARTCHAR nine
ENCODING 57
SWIDTH 714 0
DWIDTH 5 0
BBX 5 7 -1 -1
BITMAP
30
48
48
38
08
30
00
ENDCHAR
STARTCHAR colon
ENCODING 58
SWIDTH 714 0
DWIDTH 5 0
BBX 5 7 -1 -1
BITMAP
00
00
10
00
00
10
00
ENDCHAR
STARTCHAR semicolon
ENCODING 59
SWIDTH 714 0
DWIDTH 5 0
BBX 5 7 -1 -1
BITMAP
00
00
10
00
10
20
00
ENDCHAR
STARTCHAR less
ENCODING 60
SWIDTH 714 0
DWIDTH 5 0
BBX 5 7 -1 -1
BITMAP
00
10
20
40
20
10
00
ENDCHAR
STARTCHAR equal
ENCODING 61
SWIDTH 714 0
DWIDTH 5 0
BBX 5 7 -1 -1
BITMAP
00
00
70
00
70
00
00
ENDCHAR
STARTCHAR greater
ENCODING 62
SWIDTH 714 0
DWIDTH 5 0
BBX 5 7 -1 -1
BITMAP
00
40
20
10
20
40
00
ENDCHAR
STARTCHAR question
ENCODING 63
SWIDTH 714 0
DWIDTH 5 0
BBX 5 7 -1 -1
BITMAP
30
48
10
10
00
10
00
ENDCHAR
STARTCHAR at
ENCODING 64
SWIDTH 714 0
DWIDTH 5 0
BBX 5 7 -1 -1
BITMAP
30
68
68
58
40
38
00
ENDCHAR
STARTCHAR A
ENCODING 65
SWIDTH 714 0
DWIDTH 5 0
BBX 5 7 -1 -1
BITMAP
30
48
48
78
48
48
00
ENDCHAR
STARTCHAR B
ENCODING 66
SWIDTH 714 0
DWIDTH 5 0
BBX 5 7 -1 -1
BITMAP
70
48
70
48
48
70
00
ENDCHAR
STARTCHAR C
ENCODING 67
SWIDTH 714 0
DWIDTH 5 0
BBX 5 7 -1 -1
BITMAP
30
48
40
40
48
30
00
ENDCHAR
STARTCHAR D
ENCODING 68
SWIDTH 714 0
DWIDTH 5 0
BBX 5 7 -1 -1
BITMAP
70
48
48
48
48
70
00
ENDCHAR
STARTCHAR E
ENCODING 69
SWIDTH 714 0
DWIDTH 5 0
BBX 5 7 -1 -1
BITMAP
78
40
70
40
40
78
00
ENDCHAR
STARTCHAR F
ENCODING 70
SWIDTH 714 0
DWIDTH 5 0
BBX 5 7 -1 -1
BITMAP
78
40
70
40
40
40
00
ENDCHAR
STARTCHAR G
ENCODING 71
SWIDTH 714 0
DWIDTH 5 0
BBX 5 7 -1 -1
BITMAP
30
48
40
58
48
30
00
ENDCHAR
STARTCHAR H
ENCODING 72
SWIDTH 714 0
DWIDTH 5 0
BBX 5 7 -1 -1
BITMAP
48
48
78
48
48
48
00
ENDCHAR
STARTCHAR I
ENCODING 73
SWIDTH 714 0
DWIDTH 5 0
BBX 5 7 -1 -1
BITMAP
70
20
20
20
20
70
00
ENDCHAR
STARTCHAR J
ENCODING 74
SWIDTH 714 0
DWIDTH 5 0
BBX 5 7 -1 -1
BITMAP
78
10
10
10
50
50
20
ENDCHAR
STARTCHAR K
ENCODING 75
SWIDTH 714 0
DWIDTH 5 0
BBX 5 7 -1 -1
BITMAP
48
50
60
50
48
48
00
ENDCHAR
STARTCHAR L
ENCODING 76
SWIDTH 714 0
DWIDTH 5 0
BBX 5 7 -1 -1
BITMAP
40
40
40
40
40
78
00
ENDCHAR
STARTCHAR M
ENCODING 77
SWIDTH 714 0
DWIDTH 5 0
BBX 5 7 -1 -1
BITMAP
48
78
78
48
48
48
00
ENDCHAR
STARTCHAR N
ENCODING 78
SWIDTH 714 0
DWIDTH 5 0
BBX 5 7 -1 -1
BITMAP
48
68
68
58
58
48
00
ENDCHAR
STARTCHAR O
ENCODING 79
SWIDTH 714 0
DWIDTH 5 0
BBX 5 7 -1 -1
BITMAP
30
48
48
48
48
30
00
ENDCHAR
STARTCHAR P
ENCODING 80
SWIDTH 714 0
DWIDTH 5 0
BBX 5 7 -1 -1
BITMAP
70
48
48
70
40
40
00
ENDCHAR
STARTCHAR Q
ENCODING 81
SWIDTH 714 0
DWIDTH 5 0
BBX 5 7 -1 -1
BITMAP
30
48
48
48
48
30
08
ENDCHAR
STARTCHAR R
ENCODING 82
SWIDTH 714 0
DWIDTH 5 0
BBX 5 7 -1 -1
BITMAP
70
48
48
70
48
48
00
ENDCHAR
STARTCHAR S
ENCODING 83
SWIDTH 714 0
DWIDTH 5 0
BBX 5 7 -1 -1
BITMAP
38
40
30
08
08
70
00
ENDCHAR
STARTCHAR T
ENCODING 84
SWIDTH 714 0
DWIDTH 5 0
BBX 5 7 -1 -1
BITMAP
78
20
20
20
20
20
00
ENDCHAR
STARTCHAR U
ENCODING 85
SWIDTH 714 0
DWIDTH 5 0
BBX 5 7 -1 -1
BITMAP
48
48
48
48
48
30
00
ENDCHAR
STARTCHAR V
ENCODING 86
SWIDTH 714 0
DWIDTH 5 0
BBX 5 7 -1 -1
BITMAP
48
48
48
30
30
30
00
ENDCHAR
STARTCHAR W
ENCODING 87
SWIDTH 714 0
DWIDTH 5 0
BBX 5 7 -1 -1
BITMAP
48
48
48
78
78
48
00
ENDCHAR
STARTCHAR X
ENCODING 88
SWIDTH 714 0
DWIDTH 5 0
BBX 5 7 -1 -1
BITMAP
48
48
30
30
48
48
00
ENDCHAR
STARTCHAR Y
ENCODING 89
SWIDTH 714 0
DWIDTH 5 0
BBX 5 7 -1 -1
BITMAP
48
48
28
18
08
48
30
ENDCHAR
STARTCHAR Z
ENCODING 90
SWIDTH 714 0
DWIDTH 5 0
BBX 5 7 -1 -1
BITMAP
78
08
10
20
40
78
00
ENDCHAR
STARTCHAR bracketleft
ENCODING 91
SWIDTH 714 0
DWIDTH 5 0
BBX 5 7 -1 -1
BITMAP
70
40
40
40
40
70
00
ENDCHAR
STARTCHAR backslash
ENCODING 92
SWIDTH 714 0
DWIDTH 5 0
BBX 5 7 -1 -1
BITMAP
00
40
20
10
08
00
00
ENDCHAR
STARTCHAR bracketright
ENCODING 93
SWIDTH 714 0
DWIDTH 5 0
BBX 5 7 -1 -1
BITMAP
38
08
08
08
08
38
00
ENDCHAR
STARTCHAR asciicircum
ENCODING 94
SWIDTH 714 0
DWIDTH 5 0
BBX 5 7 -1 -1
BITMAP
20
50
00
00
00
00
00
ENDCHAR
STARTCHAR underscore
ENCODING 95
SWIDTH 714 0
DWIDTH 5 0
BBX 5 7 -1 -1
BITMAP
00
00
00
00
00
78
00
ENDCHAR
STARTCHAR grave
ENCODING 96
SWIDTH 714 0
DWIDTH 5 0
BBX 5 7 -1 -1
BITMAP
20
10
00
00
00
00
00
ENDCHAR
STARTCHAR a
ENCODING 97
SWIDTH 714 0
DWIDTH 5 0
BBX 5 7 -1 -1
BITMAP
00
70
08
38
48
38
00
ENDCHAR
STARTCHAR b
ENCODING 98
SWIDTH 714 0
DWIDTH 5 0
BBX 5 7 -1 -1
BITMAP
40
70
48
48
48
70
00
ENDCHAR
STARTCHAR c
ENCODING 99
SWIDTH 714 0
DWIDTH 5 0
BBX 5 7 -1 -1
BITMAP
00
30
48
40
48
30
00
ENDCHAR
STARTCHAR d
ENCODING 100
SWIDTH 714 0
DWIDTH 5 0
BBX 5 7 -1 -1
BITMAP
08
38
48
48
48
38
00
ENDCHAR
STARTCHAR e
ENCODING 101
SWIDTH 714 0
DWIDTH 5 0
BBX 5 7 -1 -1
BITMAP
00
30
48
78
40
38
00
ENDCHAR
STARTCHAR f
ENCODING 102
SWIDTH 714 0
DWIDTH 5 0
BBX 5 7 -1 -1
BITMAP
30
40
60
40
40
40
00
ENDCHAR
STARTCHAR g
ENCODING 103
SWIDTH 714 0
DWIDTH 5 0
BBX 5 7 -1 -1
BITMAP
00
38
48
48
38
08
30
ENDCHAR
STARTCHAR h
ENCODING 104
SWIDTH 714 0
DWIDTH 5 0
BBX 5 7 -1 -1
BITMAP
40
70
48
48
48
48
00
ENDCHAR
STARTCHAR i
ENCODING 105
SWIDTH 714 0
DWIDTH 5 0
BBX 5 7 -1 -1
BITMAP
20
00
20
20
20
10
00
ENDCHAR
STARTCHAR j
ENCODING 106
SWIDTH 714 0
DWIDTH 5 0
BBX 5 7 -1 -1
BITMAP
10
00
10
10
10
50
20
ENDCHAR
STARTCHAR k
ENCODING 107
SWIDTH 714 0
DWIDTH 5 0
BBX 5 7 -1 -1
BITMAP
40
40
50
60
50
50
00
ENDCHAR
STARTCHAR l
ENCODING 108
SWIDTH 714 0
DWIDTH 5 0
BBX 5 7 -1 -1
BITMAP
60
20
20
20
20
10
00
ENDCHAR
STARTCHAR m
ENCODING 109
SWIDTH 714 0
DWIDTH 5 0
BBX 5 7 -1 -1
BITMAP
00
48
78
78
48
48
00
ENDCHAR
STARTCHAR n
ENCODING 110
SWIDTH 714 0
DWIDTH 5 0
BBX 5 7 -1 -1
BITMAP
00
70
48
48
48
48
00
ENDCHAR
STARTCHAR o
ENCODING 111
SWIDTH 714 0
DWIDTH 5 0
BBX 5 7 -1 -1
BITMAP
00
30
48
48
48
30
00
ENDCHAR
STARTCHAR p
ENCODING 112
SWIDTH 714 0
DWIDTH 5 0
BBX 5 7 -1 -1
BITMAP
00
70
48
48
48
70
40
ENDCHAR
STARTCHAR q
ENCODING 113
SWIDTH 714 0
DWIDTH 5 0
BBX 5 7 -1 -1
BITMAP
00
38
48
48
48
38
08
ENDCHAR
STARTCHAR r
ENCODING 114
SWIDTH 714 0
DWIDTH 5 0
BBX 5 7 -1 -1
BITMAP
00
50
68
40
40
40
00
ENDCHAR
STARTCHAR s
ENCODING 115
SWIDTH 714 0
DWIDTH 5 0
BBX 5 7 -1 -1
BITMAP
00
38
40
30
08
70
00
ENDCHAR
STARTCHAR t
ENCODING 116
SWIDTH 714 0
DWIDTH 5 0
BBX 5 7 -1 -1
BITMAP
40
70
40
40
40
30
00
ENDCHAR
STARTCHAR u
ENCODING 117
SWIDTH 714 0
DWIDTH 5 0
BBX 5 7 -1 -1
BITMAP
00
48
48
48
48
30
00
ENDCHAR
STARTCHAR v
ENCODING 118
SWIDTH 714 0
DWIDTH 5 0
BBX 5 7 -1 -1
BITMAP
00
48
48
30
30
30
00
ENDCHAR
STARTCHAR w
ENCODING 119
SWIDTH 714 0
DWIDTH 5 0
BBX 5 7 -1 -1
BITMAP
00
48
48
78
78
48
00
ENDCHAR
STARTCHAR x
ENCODING 120
SWIDTH 714 0
DWIDTH 5 0
BBX 5 7 -1 -1
BITMAP
00
48
30
30
30
48
00
ENDCHAR
STARTCHAR y
ENCODING 121
SWIDTH 714 0
DWIDTH 5 0
BBX 5 7 -1 -1
BITMAP
00
48
48
38
08
08
30
ENDCHAR
STARTCHAR z
ENCODING 122
SWIDTH 714 0
DWIDTH 5 0
BBX 5 7 -1 -1
BITMAP
00
78
08
30
40
78
00
ENDCHAR
STARTCHAR braceleft
ENCODING 123
SWIDTH 714 0
DWIDTH 5 0
BBX 5 7 -1 -1
BITMAP
10
20
20
40
20
20
10
ENDCHAR
STARTCHAR bar
ENCODING 124
SWIDTH 714 0
DWIDTH 5 0
BBX 5 7 -1 -1
BITMAP
20
20
20
20
20
20
00
ENDCHAR
STARTCHAR braceright
ENCODING 125
SWIDTH 714 0
DWIDTH 5 0
BBX 5 7 -1 -1
BITMAP
20
10
10
08
10
10
20
ENDCHAR
STARTCHAR asciitilde
ENCODING 126
SWIDTH 714 0
DWIDTH 5 0
BBX 5 7 -1 -1
BITMAP
28
50
00
00
00
00
00
ENDCHAR
STARTCHAR U+00a1
ENCODING 161
SWIDTH 714 0
DWIDTH 5 0
BBX 5 7 -1 -1
BITMAP
20
00
20
20
20
20
00
ENDCHAR
STARTCHAR U+00a2
ENCODING 162
SWIDTH 714 0
DWIDTH 5 0
BBX 5 7 -1 -1
BITMAP
10
38
50
50
50
38
10
ENDCHAR
STARTCHAR U+00a3
ENCODING 163
SWIDTH 714 0
DWIDTH 5 0
BBX 5 7 -1 -1
BITMAP
10
28
20
70
20
78
00
ENDCHAR
STARTCHAR U+00a4
ENCODING 164
SWIDTH 714 0
DWIDTH 5 0
BBX 5 7 -1 -1
BITMAP
48
30
48
30
48
00
00
ENDCHAR
STARTCHAR U+00a5
ENCODING 165
SWIDTH 714 0
DWIDTH 5 0
BBX 5 7 -1 -1
BITMAP
48
30
78
30
78
30
00
ENDCHAR
STARTCHAR U+00a6
ENCODING 166
SWIDTH 714 0
DWIDTH 5 0
BBX 5 7 -1 -1
BITMAP
20
20
00
00
20
20
00
ENDCHAR
STARTCHAR U+00a7
ENCODING 167
SWIDTH 714 0
DWIDTH 5 0
BBX 5 7 -1 -1
BITMAP
38
40
70
48
38
08
70
ENDCHAR
STARTCHAR U+00a8
ENCODING 168
SWIDTH 714 0
DWIDTH 5 0
BBX 5 7 -1 -1
BITMAP
48
00
00
00
00
00
00
ENDCHAR
STARTCHAR U+00a9
ENCODING 169
SWIDTH 714 0
DWIDTH 5 0
BBX 5 7 -1 -1
BITMAP
30
58
68
68
58
30
00
ENDCHAR
STARTCHAR U+00aa
ENCODING 170
SWIDTH 714 0
DWIDTH 5 0
BBX 5 7 -1 -1
BITMAP
70
28
78
00
78
00
00
ENDCHAR
STARTCHAR U+00ab
ENCODING 171
SWIDTH 714 0
DWIDTH 5 0
BBX 5 7 -1 -1
BITMAP
00
28
50
50
28
00
00
ENDCHAR
STARTCHAR U+00ac
ENCODING 172
SWIDTH 714 0
DWIDTH 5 0
BBX 5 7 -1 -1
BITMAP
00
00
78
08
00
00
00
ENDCHAR
STARTCHAR U+00ad
ENCODING 173
SWIDTH 714 0
DWIDTH 5 0
BBX 5 7 -1 -1
BITMAP
00
00
78
00
00
00
00
ENDCHAR
STARTCHAR U+00ae
ENCODING 174
SWIDTH 714 0
DWIDTH 5 0
BBX 5 7 -1 -1
BITMAP
30
48
68
58
68
58
30
ENDCHAR
STARTCHAR U+00af
ENCODING 175
SWIDTH 714 0
DWIDTH 5 0
BBX 5 7 -1 -1
BITMAP
00
78
00
00
00
00
00
ENDCHAR
STARTCHAR U+00b0
ENCODING 176
SWIDTH 714 0
DWIDTH 5 0
BBX 5 7 -1 -1
BITMAP
20
50
20
00
00
00
00
ENDCHAR
STARTCHAR U+00b1
ENCODING 177
SWIDTH 714 0
DWIDTH 5 0
BBX 5 7 -1 -1
BITMAP
00
20
70
20
00
70
00
ENDCHAR
STARTCHAR U+00b2
ENCODING 178
SWIDTH 714 0
DWIDTH 5 0
BBX 5 7 -1 -1
BITMAP
60
10
20
70
00
00
00
ENDCHAR
STARTCHAR U+00b3
ENCODING 179
SWIDTH 714 0
DWIDTH 5 0
BBX 5 7 -1 -1
BITMAP
70
30
10
70
00
00
00
ENDCHAR
STARTCHAR U+00b4
ENCODING 180
SWIDTH 714 0
DWIDTH 5 0
BBX 5 7 -1 -1
BITMAP
10
20
00
00
00
00
00
ENDCHAR
STARTCHAR U+00b5
ENCODING 181
SWIDTH 714 0
DWIDTH 5 0
BBX 5 7 -1 -1
BITMAP
00
00
48
48
48
78
40
ENDCHAR
STARTCHAR U+00b6
ENCODING 182
SWIDTH 714 0
DWIDTH 5 0
BBX 5 7 -1 -1
BITMAP
78
78
78
28
28
28
00
ENDCHAR
STARTCHAR U+00b7
ENCODING 183
SWIDTH 714 0
DWIDTH 5 0
BBX 5 7 -1 -1
BITMAP
00
00
00
20
00
00
00
ENDCHAR
STARTCHAR U+00b8
ENCODING 184
SWIDTH 714 0
DWIDTH 5 0
BBX 5 7 -1 -1
BITMAP
00
00
00
00
10
20
00
ENDCHAR
STARTCHAR U+00b9
ENCODING 185
SWIDTH 714 0
DWIDTH 5 0
BBX 5 7 -1 -1
BITMAP
10
30
10
10
00
00
00
ENDCHAR
STARTCHAR U+00ba
ENCODING 186
SWIDTH 714 0
DWIDTH 5 0
BBX 5 7 -1 -1
BITMAP
30
48
30
78
00
00
00
ENDCHAR
STARTCHAR U+00bb
ENCODING 187
SWIDTH 714 0
DWIDTH 5 0
BBX 5 7 -1 -1
BITMAP
00
50
28
28
50
00
00
ENDCHAR
STARTCHAR U+00bc
ENCODING 188
SWIDTH 714 0
DWIDTH 5 0
BBX 5 7 -1 -1
BITMAP
20
28
10
28
58
08
00
ENDCHAR
STARTCHAR U+00bd
ENCODING 189
SWIDTH 714 0
DWIDTH 5 0
BBX 5 7 -1 -1
BITMAP
20
28
10
38
48
18
00
ENDCHAR
STARTCHAR U+00be
ENCODING 190
SWIDTH 714 0
DWIDTH 5 0
BBX 5 7 -1 -1
BITMAP
60
68
10
28
58
08
00
ENDCHAR
STARTCHAR U+00bf
ENCODING 191
SWIDTH 714 0
DWIDTH 5 0
BBX 5 7 -1 -1
BITMAP
20
00
20
20
48
30
00
ENDCHAR
STARTCHAR U+00c0
ENCODING 192
SWIDTH 714 0
DWIDTH 5 0
BBX 5 7 -1 -1
BITMAP
20
10
30
48
78
48
00
ENDCHAR
STARTCHAR U+00c1
ENCODING 193
SWIDTH 714 0
DWIDTH 5 0
BBX 5 7 -1 -1
BITMAP
10
20
30
48
78
48
00
ENDCHAR
STARTCHAR U+00c2
ENCODING 194
SWIDTH 714 0
DWIDTH 5 0
BBX 5 7 -1 -1
BITMAP
30
48
30
48
78
48
00
ENDCHAR
STARTCHAR U+00c3
ENCODING 195
SWIDTH 714 0
DWIDTH 5 0
BBX 5 7 -1 -1
BITMAP
28
50
30
48
78
48
00
ENDCHAR
STARTCHAR U+00c4
ENCODING 196
SWIDTH 714 0
DWIDTH 5 0
BBX 5 7 -1 -1
BITMAP
48
00
30
48
78
48
00
ENDCHAR
STARTCHAR U+00c5
ENCODING 197
SWIDTH 714 0
DWIDTH 5 0
BBX 5 7 -1 -1
BITMAP
30
48
30
48
78
48
00
ENDCHAR
STARTCHAR U+00c6
ENCODING 198
SWIDTH 714 0
DWIDTH 5 0
BBX 5 7 -1 -1
BITMAP
38
50
78
50
50
58
00
ENDCHAR
STARTCHAR U+00c7
ENCODING 199
SWIDTH 714 0
DWIDTH 5 0
BBX 5 7 -1 -1
BITMAP
30
48
40
40
48
30
20
ENDCHAR
STARTCHAR U+00c8
ENCODING 200
SWIDTH 714 0
DWIDTH 5 0
BBX 5 7 -1 -1
BITMAP
10
78
40
78
40
78
00
ENDCHAR
STARTCHAR U+00c9
ENCODING 201
SWIDTH 714 0
DWIDTH 5 0
BBX 5 7 -1 -1
BITMAP
10
78
40
78
40
78
00
ENDCHAR
STARTCHAR U+00ca
ENCODING 202
SWIDTH 714 0
DWIDTH 5 0
BBX 5 7 -1 -1
BITMAP
30
78
40
78
40
78
00
ENDCHAR
STARTCHAR U+00cb
ENCODING 203
SWIDTH 714 0
DWIDTH 5 0
BBX 5 7 -1 -1
BITMAP
48
78
40
78
40
78
00
ENDCHAR
STARTCHAR U+00cc
ENCODING 204
SWIDTH 714 0
DWIDTH 5 0
BBX 5 7 -1 -1
BITMAP
40
00
70
20
20
70
00
ENDCHAR
STARTCHAR U+00cd
ENCODING 205
SWIDTH 714 0
DWIDTH 5 0
BBX 5 7 -1 -1
BITMAP
10
00
70
20
20
70
00
ENDCHAR
STARTCHAR U+00ce
ENCODING 206
SWIDTH 714 0
DWIDTH 5 0
BBX 5 7 -1 -1
BITMAP
20
50
70
20
20
70
00
ENDCHAR
STARTCHAR U+00cf
ENCODING 207
SWIDTH 714 0
DWIDTH 5 0
BBX 5 7 -1 -1
BITMAP
28
00
38
10
10
38
00
ENDCHAR
STARTCHAR U+00e0
ENCODING 224
SWIDTH 714 0
DWIDTH 5 0
BBX 5 7 -1 -1
BITMAP
20
30
08
38
48
38
00
ENDCHAR
STARTCHAR U+00e1
ENCODING 225
SWIDTH 714 0
DWIDTH 5 0
BBX 5 7 -1 -1
BITMAP
10
30
08
38
48
38
00
ENDCHAR
STARTCHAR U+00e2
ENCODING 226
SWIDTH 714 0
DWIDTH 5 0
BBX 5 7 -1 -1
BITMAP
30
30
08
38
48
38
00
ENDCHAR
STARTCHAR U+00e3
ENCODING 227
SWIDTH 714 0
DWIDTH 5 0
BBX 5 7 -1 -1
BITMAP
28
50
08
38
48
38
00
ENDCHAR
STARTCHAR U+00e4
ENCODING 228
SWIDTH 714 0
DWIDTH 5 0
BBX 5 7 -1 -1
BITMAP
48
30
08
38
48
38
00
ENDCHAR
STARTCHAR U+00e5
ENCODING 229
SWIDTH 714 0
DWIDTH 5 0
BBX 5 7 -1 -1
BITMAP
30
78
08
38
48
38
00
ENDCHAR
STARTCHAR U+00e6
ENCODING 230
SWIDTH 714 0
DWIDTH 5 0
BBX 5 7 -1 -1
BITMAP
00
78
28
78
50
78
00
ENDCHAR
STARTCHAR U+00e7
ENCODING 231
SWIDTH 714 0
DWIDTH 5 0
BBX 5 7 -1 -1
BITMAP
00
30
48
40
48
30
10
ENDCHAR
STARTCHAR U+00e8
ENCODING 232
SWIDTH 714 0
DWIDTH 5 0
BBX 5 7 -1 -1
BITMAP
20
30
48
70
40
38
00
ENDCHAR
STARTCHAR U+00e9
ENCODING 233
SWIDTH 714 0
DWIDTH 5 0
BBX 5 7 -1 -1
BITMAP
10
30
48
70
40
38
00
ENDCHAR
STARTCHAR U+00ea
ENCODING 234
SWIDTH 714 0
DWIDTH 5 0
BBX 5 7 -1 -1
BITMAP
30
78
48
70
40
38
00
ENDCHAR
STARTCHAR U+00eb
ENCODING 235
SWIDTH 714 0
DWIDTH 5 0
BBX 5 7 -1 -1
BITMAP
48
30
48
70
40
38
00
ENDCHAR
STARTCHAR U+00ec
ENCODING 236
SWIDTH 714 0
DWIDTH 5 0
BBX 5 7 -1 -1
BITMAP
40
20
00
20
20
10
00
ENDCHAR
STARTCHAR U+00ed
ENCODING 237
SWIDTH 714 0
DWIDTH 5 0
BBX 5 7 -1 -1
BITMAP
20
40
00
20
20
10
00
ENDCHAR
STARTCHAR U+00ee
ENCODING 238
SWIDTH 714 0
DWIDTH 5 0
BBX 5 7 -1 -1
BITMAP
20
50
00
20
20
10
00
ENDCHAR
STARTCHAR U+00ef
ENCODING 239
SWIDTH 714 0
DWIDTH 5 0
BBX 5 7 -1 -1
BITMAP
00
50
00
20
20
10
00
ENDCHAR
STARTCHAR U+00f0
ENCODING 240
SWIDTH 714 0
DWIDTH 5 0
BBX 5 7 -1 -1
BITMAP
20
78
30
50
50
20
00
ENDCHAR
STARTCHAR U+00f1
ENCODING 241
SWIDTH 714 0
DWIDTH 5 0
BBX 5 7 -1 -1
BITMAP
28
50
60
50
50
50
00
ENDCHAR
STARTCHAR U+00f2
ENCODING 242
SWIDTH 714 0
DWIDTH 5 0
BBX 5 7 -1 -1
BITMAP
10
20
30
48
48
30
00
ENDCHAR
STARTCHAR U+00f3
ENCODING 243
SWIDTH 714 0
DWIDTH 5 0
BBX 5 7 -1 -1
BITMAP
20
10
30
48
48
30
00
ENDCHAR
STARTCHAR U+00f4
ENCODING 244
SWIDTH 714 0
DWIDTH 5 0
BBX 5 7 -1 -1
BITMAP
30
48
30
48
48
30
00
ENDCHAR
STARTCHAR U+00f5
ENCODING 245
SWIDTH 714 0
DWIDTH 5 0
BBX 5 7 -1 -1
BITMAP
28
50
30
48
48
30
00
ENDCHAR
STARTCHAR U+00f6
ENCODING 246
SWIDTH 714 0
DWIDTH 5 0
BBX 5 7 -1 -1
BITMAP
48
00
30
48
48
30
00
ENDCHAR
STARTCHAR U+00f7
ENCODING 247
SWIDTH 714 0
DWIDTH 5 0
BBX 5 7 -1 -1
BITMAP
00
20
00
70
00
20
00
ENDCHAR
STARTCHAR U+00f8
ENCODING 248
SWIDTH 714 0
DWIDTH 5 0
BBX 5 7 -1 -1
BITMAP
38
58
78
78
68
70
00
ENDCHAR
STARTCHAR U+00f9
ENCODING 249
SWIDTH 714 0
DWIDTH 5 0
BBX 5 7 -1 -1
BITMAP
20
10
00
48
48
30
00
ENDCHAR
STARTCHAR U+00fa
ENCODING 250
SWIDTH 714 0
DWIDTH 5 0
BBX 5 7 -1 -1
BITMAP
10
20
00
48
48
30
00
ENDCHAR
STARTCHAR U+00fb
ENCODING 251
SWIDTH 714 0
DWIDTH 5 0
BBX 5 7 -1 -1
BITMAP
30
48
00
48
48
30
00
ENDCHAR
STARTCHAR U+00fc
ENCODING 252
SWIDTH 714 0
DWIDTH 5 0
BBX 5 7 -1 -1
BITMAP
48
00
00
48
48
30
00
ENDCHAR
STARTCHAR U+00fd
ENCODING 253
SWIDTH 714 0
DWIDTH 5 0
BBX 5 7 -1 -1
BITMAP
10
20
50
50
20
20
00
ENDCHAR
STARTCHAR U+00fe
ENCODING 254
SWIDTH 714 0
DWIDTH 5 0
BBX 5 7 -1 -1
BITMAP
40
70
48
48
70
40
00
ENDCHAR
STARTCHAR U+00ff
ENCODING 255
SWIDTH 714 0
DWIDTH 5 0
BBX 5 7 -1 -1
BITMAP
50
00
50
50
20
20
00
ENDCHAR
ENDFONT
